<svg xmlns="http://www.w3.org/2000/svg" version="1.0" width="256.000000pt" height="50px" viewBox="0 0 256.000000 256.000000" preserveAspectRatio="xMidYMid meet"><style>.style0{fill:	#FFCC01;}</style><metadata>Created by potrace 1.11, written by Peter Selinger 2001-2013</metadata><g class="style0"><path d="M226.5 9.4 c-6.1 1.9 -7.7 3 -17.7 11.8 -17.7 15.4 -40.5 37.2 -79.6 76.1 -35.4 35.2 -39.4 38.9 -40.8 37.5 -1.4 -1.3 -1.3 -1.8 0.9 -4.4 6.9 -8.2 9.3 -18.6 6 -25.6 -2.7 -5.6 -22 -25.8 -26.8 -27.9 -8 -3.7 -15.2 -2 -27.1 6.2 -15 10.4 -26.4 25.5 -26.4 35 0 6.6 3.1 11.4 15.3 24.1 9.4 9.9 11.9 11.9 15.6 12.8 5.9 1.5 11.4 0.6 18 -3l5.5 -3 2.2 2.1 2.3 2.1 -7.7 9.2c-11.5 13.6 -27.3 36.8 -36.1 53.1 -1.9 3.5 -7.1 9.9 -12.7 15.6 -5.2 5.3 -9.4 10.3 -9.4 11 0 2.5 3 5.9 5.2 5.9 1.3 -0 5.6 -3.5 11.2 -8.9 5 -4.9 11.1 -9.9 13.6 -11.1 7.3 -3.7 22.5 -13.5 37 -23.8 12.5 -9 40.7 -34.8 64.9 -59.5l6.4 -6.6 5.1 4.3c6 5.1 7.3 5.6 10.5 4.4 3.2 -1.2 4.6 0.2 7.2 7 1.9 5 2.3 8.4 2.8 27.7 0.8 25.9 1.7 29 10.7 37.5 10.1 9.5 23.7 13.6 35.4 10.6 6.8 -1.8 15.1 -6.4 17.5 -9.9 3.2 -4.6 0.9 -8.7 -4.7 -8.7 -1.3 -0 -5.2 1.4 -8.6 3.1 -8.3 4 -11.8 4.5 -18.5 2.5 -4.2 -1.2 -7.1 -3 -11.3 -6.9 -6.8 -6.3 -7.3 -8.3 -7.4 -27.8 0 -17.7 -2 -29.3 -6.7 -38.9 -2 -4.1 -3.5 -8 -3.3 -8.5 1.3 -4.3 0.9 -5.4 -3.6 -10.8l-4.7 -5.8 2.9 -3.2c1.6 -1.8 11 -11.5 21 -21.7 26.6 -27.2 46.2 -47.8 50.5 -53.3 3.9 -4.9 6.9 -12.7 6.9 -17.9 0 -4.6 -3.5 -10.3 -7.4 -12.2 -4 -1.9 -8.5 -2 -14.1 -0.2zm8.5 11.6c2.5 2.5 2.5 5.6 0 9.7 -1.1 1.8 -36.3 37.8 -78.2 79.9l-76.3 76.7 -16.4 10.9c-9 5.9 -16.6 10.6 -16.9 10.3 -0.3 -0.3 3.9 -7.2 9.3 -15.3l9.8 -14.7 59.1 -59.3c64.1 -64.4 98.4 -97.8 101.9 -99.2 3.5 -1.4 5.6 -1.1 7.7 1zm-164.8 72.7c9.7 9.2 13.8 14.9 13.8 19.1 0 5.6 -3.5 11.5 -11.4 18.9 -10.8 10.4 -18.7 13.4 -25.5 9.9 -3.2 -1.7 -14.4 -13.4 -17.2 -18 -4.7 -7.8 -0.1 -17.1 14.2 -28.8 5.8 -4.8 10.3 -6.7 15.7 -6.8 3.9 -0 4.9 0.5 10.4 5.7z"/></g></svg>