<svg xmlns="http://www.w3.org/2000/svg" xmlns:xlink="http://www.w3.org/1999/xlink" version="1.1" id="Capa_1" x="0px" y="0px" width="45px" height="45px" viewBox="0 0 45 45" xml:space="preserve" class="style0"><style>.style0{enable-background:	new 0 0 45 45; fill:#FFCC01;}</style><g><g><g><path d="M44.801 24.198c-0.506-1.75-4.51-3.289-5.306-3.58c-0.854-0.313-3.047-1.063-5.153-1.339 c-3.697-1.809-7.843-3.073-7.922-3.096c-0.066-0.014-1.706-0.358-6.284-0.358c-3.043 0-6.013 0.6-8.633 1.1 c-1.372 0.277-2.667 0.54-3.817 0.682c-3.304 0.408-5.792 0.446-5.817 0.446c-0.197 0.003-0.374 0.124-0.447 0.3 C1.363 18.5 0 22 0 23.535c0 1.7 2.4 3.4 2.6 3.595c0.082 0.1 0.2 0.1 0.3 0.088h0.987 c0.733 1.2 2 2 3.5 1.957c1.481 0 2.774-0.784 3.508-1.957h20.325c0.705 1.2 2 2 3.4 2 s2.729-0.79 3.436-1.957h6.254c0.213 0 0.401-0.137 0.467-0.34C44.852 26.8 45.2 25.6 44.8 24.198z M32.77 19.6 c-0.852 0.179-1.788 0.29-2.814 0.342l0.026-0.048c0.068-0.125 0.081-0.276 0.03-0.411c-0.051-0.136-0.16-0.241-0.295-0.29 l-1.473-0.521c-0.135-0.048-0.28-0.034-0.403 0.034c-0.123 0.069-0.21 0.188-0.239 0.327L27.41 20 c-2.495-0.082-5.267-0.415-8.332-0.838l1.343-2.336c4.18 0 5.7 0.3 5.8 0.325C26.218 17.1 29.5 18.1 32.8 19.6 z M11.697 17.913c2.32-0.468 4.923-0.97 7.57-1.07l-1.237 2.153c-0.548-0.077-1.104-0.157-1.673-0.237 c-1.707-0.243-3.449-0.492-5.256-0.726C11.299 18 11.5 18 11.7 17.913z M7.414 28.2 c-1.748 0-3.172-1.424-3.172-3.172c0-1.75 1.424-3.171 3.172-3.171c1.75 0 3.2 1.4 3.2 3.2 C10.587 26.8 9.2 28.2 7.4 28.196z M34.682 28.196c-1.68 0-3.045-1.366-3.045-3.045c0-1.68 1.365-3.045 3.045-3.045 c1.681 0 3 1.4 3 3.045C37.727 26.8 36.4 28.2 34.7 28.196z"/><circle cx="7.4" cy="25" r="2"/><circle cx="34.7" cy="25.2" r="2"/></g></g></g><g></g><g></g><g></g><g></g><g></g><g></g><g></g><g></g><g></g><g></g><g></g><g></g><g></g><g></g><g></g></svg>