<svg xmlns="http://www.w3.org/2000/svg" xmlns:xlink="http://www.w3.org/1999/xlink" version="1.1" id="Capa_1" x="0px" y="0px" viewBox="0 0 19.028 19.028" xml:space="preserve" class="style0"><style>.style0{enable-background:	new 0 0 19.028 19.028; fill:	#FFCC01;}.style1{fill:	#FFCC01;}</style><g><g><g><g><path d="M7.364 15.921H6.017c-0.378 0-0.49-0.112-1.16-1.77l-0.333-0.135 c-1.41 0.637-1.583 0.637-1.688 0.637H2.622l-0.17-0.154l-0.953-0.934c-0.277-0.274-0.277-0.419 0.45-2.07l-0.13-0.309 C0.116 10.6 0 10.5 0 10.075v-1.32C0 8.4 0.1 8.3 1.8 7.607l0.13-0.309C1.205 5.7 1.2 5.5 1.5 5.2 l1.105-1.082l0.232-0.004c0.098 0 0.3 0 1.7 0.603L4.84 4.633c0.623-1.664 0.734-1.777 1.121-1.777h1.347 c0.382 0 0.5 0.1 1.2 1.77L8.798 4.76c1.408-0.637 1.583-0.637 1.689-0.637h0.214l0.17 0.153l0.956 0.9 c0.276 0.3 0.3 0.42-0.451 2.072l0.131 0.311c1.714 0.6 1.8 0.7 1.8 1.11v1.318c0 0.386-0.104 0.487-1.812 1.1 l-0.13 0.31c0.762 1.6 0.8 1.8 0.5 2.045l-1.11 1.086l-0.232 0.004c-0.098 0-0.276 0-1.709-0.604l-0.332 0.1 C7.862 15.8 7.8 15.9 7.4 15.921z M6.317 14.863h0.739c0.132-0.298 0.346-0.841 0.52-1.307l0.081-0.218l1.171-0.475 L9.03 12.95c0.479 0.2 1 0.4 1.4 0.544l0.514-0.502c-0.123-0.303-0.36-0.829-0.573-1.272l-0.103-0.215l0.49-1.16 l0.209-0.082c0.481-0.186 1.041-0.413 1.344-0.55V9.016c-0.305-0.128-0.858-0.338-1.334-0.506l-0.221-0.078L10.223 7.3 l0.093-0.209c0.204-0.461 0.433-1.003 0.549-1.312l-0.514-0.502c-0.308 0.119-0.856 0.357-1.32 0.569L8.824 5.91l-1.17-0.472 L7.57 5.23C7.381 4.8 7.1 4.2 7 3.914H6.269C6.137 4.2 5.9 4.8 5.8 5.221L5.669 5.438L4.501 5.912L4.299 5.8 C3.819 5.6 3.3 5.4 2.9 5.283L2.427 5.785C2.55 6.1 2.8 6.6 3 7.058l0.102 0.214l-0.49 1.161l-0.209 0.1 c-0.481 0.186-1.04 0.413-1.343 0.55V9.76c0.305 0.1 0.9 0.3 1.3 0.508l0.22 0.078l0.487 1.16L3.01 11.7 c-0.204 0.46-0.433 1.003-0.549 1.312l0.513 0.502c0.308-0.119 0.856-0.356 1.319-0.568l0.208-0.095l1.17 0.474l0.084 0.2 C5.945 14 6.2 14.6 6.3 14.863z M6.662 11.841c-1.376 0-2.495-1.1-2.495-2.453c0-1.352 1.119-2.452 2.495-2.452 s2.496 1.1 2.5 2.452C9.158 10.7 8 11.8 6.7 11.841z M6.662 7.994c-0.792 0-1.437 0.625-1.437 1.4 c0 0.8 0.6 1.4 1.4 1.395c0.793 0 1.438-0.625 1.438-1.395C8.1 8.6 7.5 8 6.7 7.994z" class="style1"/></g></g><g><g><path d="M15.143 16.171H15.07l-0.665-0.223c-0.305-0.103-0.334-0.302-0.37-1.082 c-0.201 0.021-0.49 0.051-0.64 0.051c-0.282 0-0.409-0.142-0.466-0.261l-0.276-0.57c-0.129-0.288-0.012-0.451 0.499-1.027 l-0.001-0.009c-0.577-0.469-0.73-0.621-0.631-0.928l0.205-0.613c0.103-0.301 0.317-0.335 1.064-0.379l0.007-0.008 c-0.079-0.766-0.078-0.967 0.2-1.114l0.668-0.341h0.108c0.156 0 0.2 0 0.8 0.538c0.491-0.618 0.583-0.671 0.793-0.671h0.074 l0.663 0.223c0.305 0.1 0.3 0.3 0.4 1.082c0.202-0.022 0.492-0.052 0.641-0.052c0.284 0 0.4 0.1 0.5 0.3 l0.274 0.566c0.142 0.3 0 0.439-0.497 1.028l0.001 0.009c0.566 0.5 0.7 0.6 0.6 0.938l-0.202 0.6 c-0.091 0.3-0.307 0.334-1.063 0.379l-0.006 0.007c0.077 0.8 0.1 0.971-0.209 1.117l-0.659 0.338h-0.109 c-0.154 0-0.219 0-0.816-0.538C15.459 16.1 15.4 16.2 15.1 16.171z M14.858 15.434l0.085 0 c0.11-0.131 0.255-0.31 0.378-0.467l0.133-0.17l0.841-0.06l0.154 0.141c0.147 0.1 0.3 0.3 0.4 0.397l0.094-0.048 c-0.012-0.171-0.033-0.404-0.055-0.604l-0.021-0.208l0.546-0.641l0.207-0.012c0.202-0.012 0.436-0.028 0.605-0.044l0.038-0.112 c-0.127-0.11-0.301-0.256-0.454-0.38l-0.165-0.134l-0.052-0.836l0.134-0.151c0.139-0.157 0.297-0.341 0.407-0.476l-0.045-0.094 c-0.187 0.016-0.424 0.042-0.579 0.061l-0.217 0.027l-0.631-0.559l-0.009-0.206c-0.01-0.205-0.023-0.441-0.037-0.615 l-0.087-0.029c-0.11 0.131-0.256 0.311-0.379 0.467l-0.133 0.17l-0.838 0.062l-0.154-0.142c-0.147-0.135-0.32-0.287-0.449-0.397 l-0.093 0.047c0.012 0.2 0 0.4 0.1 0.606l0.021 0.207l-0.544 0.641l-0.208 0.01c-0.201 0.012-0.437 0.029-0.606 0 l-0.038 0.111c0.127 0.1 0.3 0.3 0.5 0.38l0.167 0.134l0.051 0.84l-0.134 0.151c-0.14 0.156-0.298 0.339-0.409 0.5 l0.045 0.093c0.188-0.017 0.425-0.043 0.579-0.062l0.217-0.027l0.632 0.559l0.009 0.2 C14.83 15 14.8 15.3 14.9 15.434z M15.748 14.23c-0.146 0-0.288-0.023-0.426-0.07c-0.711-0.238-1.092-1.019-0.85-1.74 c0.19-0.564 0.713-0.943 1.302-0.943c0.145 0 0.3 0 0.4 0.068c0.711 0.2 1.1 1 0.8 1.7 C16.859 13.8 16.3 14.2 15.7 14.23z M15.775 12.358c-0.21 0-0.397 0.138-0.466 0.343c-0.087 0.3 0 0.5 0.3 0.6 c0.245 0.1 0.525-0.07 0.609-0.32c0.088-0.26-0.044-0.54-0.293-0.624C15.872 12.4 15.8 12.4 15.8 12.358z" class="style1"/></g></g></g></g><g></g><g></g><g></g><g></g><g></g><g></g><g></g><g></g><g></g><g></g><g></g><g></g><g></g><g></g><g></g></svg>