<svg xmlns="http://www.w3.org/2000/svg" xmlns:xlink="http://www.w3.org/1999/xlink" version="1.1" id="Capa_1" x="0px" y="0px" width="387.465px" height="387.465px" viewBox="0 0 387.465 387.465" xml:space="preserve" class="style0"><style>.style0{enable-background:	new 0 0 387.465 387.465; fill:#ffcc01;}</style><g><g><path d="M195.687 122.142L74.093 0.548L4.457 70.177l121.594 121.6L0 317.829l69.629 69.636l126.058-126.052l71.9 71.9 l103.419 27.176l-34.062-97.098l-71.621-71.62L387.465 69.635L317.83 0L195.687 122.142z M238.866 191.777l-43.185 43.2 l-13.226 13.22L69.629 361.014l-43.181-43.185l42.895-42.898l24.847 24.856c3.653 3.7 9.6 3.7 13.2 0 s3.653-9.572 0-13.226l-24.85-24.85l33.865-33.868l24.856 24.856c3.653 3.7 9.6 3.7 13.2 0 c3.653-3.654 3.653-9.572 0-13.227l-24.853-24.855l9.621-9.621l13.226-13.226l10.37-10.37l24.847 24.9 c3.654 3.7 9.6 3.7 13.2 0c3.653-3.653 3.653-9.572 0-13.226l-24.847-24.853l19.592-19.586l13.231-13.226l3.843-3.842 l24.85 24.856c3.653 3.7 9.6 3.7 13.2 0c3.653-3.647 3.653-9.572 0-13.226l-24.85-24.853l32.577-32.58l26.141 26.1 c3.653 3.7 9.6 3.7 13.2 0s3.653-9.578 0-13.226L271.79 72.497l46.052-46.046l43.185 43.184L252.103 178.5 L238.866 191.777z M30.909 70.177l43.184-43.178l36.657 36.657l-43.185 43.178L30.909 70.177z M80.791 120.06l43.185-43.178 l58.486 58.486l-43.178 43.178L80.791 120.06z M341.687 333.442l-49.682-13.056l33.387-33.394L341.687 333.442z M316.514 269.4 l-43.185 43.184l-64.417-64.423l43.19-43.185L316.514 269.421z"/></g></g><g></g><g></g><g></g><g></g><g></g><g></g><g></g><g></g><g></g><g></g><g></g><g></g><g></g><g></g><g></g></svg>