<svg xmlns="http://www.w3.org/2000/svg" xmlns:xlink="http://www.w3.org/1999/xlink" version="1.1" id="Capa_1" x="0px" y="0px" width="611.999px" height="612px" viewBox="0 0 611.999 612" xml:space="preserve" class="style0"><style>.style0{enable-background:	new 0 0 611.999 612;fill: #FFCC01}</style><g><g><g><path d="M598.801 224.984H13.199c-5.137 0-9.804-2.978-11.969-7.635c-2.165-4.656-1.431-10.147 1.88-14.07L143.552 36.7 c2.508-2.978 6.199-4.694 10.09-4.694h304.722c3.892 0 7.6 1.7 10.1 4.694l140.437 166.6 c3.311 3.9 4 9.4 1.9 14.07C608.605 222 603.9 225 598.8 224.984z M41.594 198.585h528.812L452.229 58.4 H159.776L41.594 198.585z"/><polygon points="306,580 3.1,220.3 23.3,203.3 306,539 588.7,203.3 608.9,220.3"/><path d="M306 572.689c-5.602 0-10.586-3.531-12.444-8.812L170.959 216.178c-1.452-4.124-0.776-8.696 1.816-12.217L295.371 37.4 c2.487-3.38 6.432-5.376 10.629-5.376c4.197 0 8.1 2 10.6 5.375L439.23 203.96c2.588 3.5 3.3 8.1 1.8 12.2 L318.449 563.876C316.586 569.2 311.6 572.7 306 572.689z M198.176 213.987L306 519.796l107.823-305.811L306 67.5 L198.176 213.987z"/></g></g></g><g></g><g></g><g></g><g></g><g></g><g></g><g></g><g></g><g></g><g></g><g></g><g></g><g></g><g></g><g></g></svg>