<?xml version="1.0" encoding="UTF-8"?>
<!DOCTYPE svg PUBLIC "-//W3C//DTD SVG 1.1//EN" "http://www.w3.org/Graphics/SVG/1.1/DTD/svg11.dtd">
<!-- Creator: CorelDRAW X6 -->
<svg xmlns="http://www.w3.org/2000/svg" xml:space="preserve" width="67.7332mm" height="25.4mm" version="1.1" style="shape-rendering:geometricPrecision; text-rendering:geometricPrecision; image-rendering:optimizeQuality; fill-rule:evenodd; clip-rule:evenodd"
viewBox="0 0 6773 2540"
 xmlns:xlink="http://www.w3.org/1999/xlink">
 <defs>
  <style type="text/css">
   <![CDATA[
    .fil0 {fill:#2B2A29}
   ]]>
  </style>
 </defs>
 <g id="Layer_x0020_1">
  <metadata id="CorelCorpID_0Corel-Layer"/>
  <g id="_729330416">
   <g>
    <g>
     <path class="fil0" d="M3294 1937c7,-26 8,-35 11,-97 4,-109 7,-257 9,-515 2,-234 2,-259 7,-259 5,0 6,2 7,18 1,50 15,92 33,105 15,10 84,14 96,6 21,-14 30,-43 37,-110 9,-84 3,-171 -13,-203 -12,-22 -26,-28 -69,-30 -34,-3 -42,-1 -50,8 -13,14 -21,35 -27,69l-5 27 -7 1 -8 0 -2 -56c-3,-83 -15,-212 -28,-296 -3,-17 -5,-56 -5,-93 0,-35 -1,-66 -2,-68 -4,-8 -16,-10 -20,-3 -2,5 -3,31 -4,67 0,33 -2,69 -5,81 -6,37 -16,119 -24,201 -7,71 -12,250 -12,411l0 44 -17 2c-19,2 -22,5 -26,19 -3,15 -8,15 -25,0 -12,-10 -18,-20 -53,-83 -46,-84 -53,-92 -84,-90 -34,1 -65,31 -81,80 -9,28 -15,70 -14,90 3,26 14,32 24,14 2,-5 6,-22 10,-39 7,-40 13,-53 28,-68 9,-10 18,-14 32,-14 23,-2 27,4 61,68 31,60 55,92 80,108 10,8 20,16 20,18 5,19 8,21 25,25l19 4 0 20c0,11 0,74 0,141 0,178 1,311 3,343 2,30 10,66 19,83 8,15 24,23 34,16 11,-6 19,-20 26,-45l0 0zm-36 -11c-8,0 -14,-10 -16,-32 -1,-10 -1,-246 0,-523l2 -506 11 -90c5,-50 11,-90 12,-90 1,0 5,37 10,82l8 81 -2 391c-2,425 -5,649 -9,665 -4,17 -8,22 -16,22l0 0zm167 -782c-33,1 -51,-5 -58,-19 -10,-18 -13,-50 -12,-100 1,-70 10,-106 28,-116 8,-6 49,-3 62,3 21,11 29,57 24,143 -2,35 -6,56 -16,74 -7,13 -9,14 -28,15z"/>
    </g>
    <polygon class="fil0" points="3451,857 3355,919 3329,1039 3361,1189 3464,1163 3487,1005 "/>
    <polygon class="fil0" points="3295,827 3266,659 3239,839 3221,1271 3297,1287 "/>
    <polygon class="fil0" points="3298,1240 3221,1271 3229,1885 3243,1942 3275,1947 3290,1689 "/>
   </g>
   <g>
    <rect class="fil0" x="2857" y="366" width="146" height="1364"/>
    <path class="fil0" d="M2857 1959c0,31 30,56 67,56l12 0c36,0 67,-25 67,-56l0 -186 -146 0 0 186z"/>
    <polygon class="fil0" points="2912,232 2948,232 2930,195 "/>
    <polygon class="fil0" points="2903,251 2857,346 3003,346 2957,251 "/>
   </g>
  </g>
  <g id="_730324240">
   <rect class="fil0" x="1770" y="1418" width="2525" height="147"/>
   <g>
    <polygon class="fil0" points="5106,2475 3861,1472 5932,601 4868,1595 "/>
    <g>
     <polygon class="fil0" points="3593,1078 3565,1078 3565,1773 3593,1773 "/>
     <polygon class="fil0" points="3739,1022 3760,1022 3760,1821 3538,1821 3538,1022 3564,1022 3564,956 3577,956 3577,935 3619,935 3619,846 3690,847 3690,864 3695,864 3695,913 3690,913 3690,935 3727,935 3727,956 3739,956 3739,956 "/>
     <polygon class="fil0" points="3538,1837 3760,1837 3760,1886 3538,1886 "/>
    </g>
   </g>
  </g>
  <g id="_730323312">
   <path class="fil0" d="M1961 1397c-445,116 -447,134 -727,164 73,-81 -22,-187 -107,-134 -106,84 21,212 107,134 99,0 659,-116 727,-164l4 194 215 883 -1019 -619 102 15 -501 -208 1312 -1076 -113 811z"/>
   <polygon class="fil0" points="1290,1444 1275,1481 1210,1639 1945,1600 1961,1397 "/>
   <path class="fil0" d="M2391 1180c-5,147 -1,1091 -73,1083 -19,-2 -34,-28 -35,-60l-40 -1022c-3,-72 28,-134 69,-139 41,-5 76,49 79,121 0,6 0,12 0,17zm-65 -606c-6,-17 -98,150 -87,310 8,103 47,148 89,130 55,-22 69,-121 49,-172 -47,-113 -63,-145 -51,-268z"/>
  </g>
 </g>
 <g id="Layer_x0020_1_0">
  <metadata id="CorelCorpID_1Corel-Layer"/>
  <g id="_810172560">
   <path class="fil0" d="M2756 455c0,0 -75,-295 -106,-408l15 267c15,14 28,56 28,93 0,50 -21,91 -45,91 -24,0 -44,-41 -44,-91 0,-38 13,-78 29,-92l10 -271 -95 402 22 299 144 3 42 -293zm-68 1581c8,-75 27,-1206 27,-1206l-147 -6c0,0 20,1042 38,1227 49,91 82,-15 82,-15z"/>
   <g>
   </g>
   <g>
   </g>
   <g>
   </g>
   <g>
   </g>
   <g>
   </g>
   <g>
   </g>
   <g>
   </g>
   <g>
   </g>
   <g>
   </g>
   <g>
   </g>
   <g>
   </g>
   <g>
   </g>
   <g>
   </g>
   <g>
   </g>
   <g>
   </g>
  </g>
 </g>
</svg>
