<?xml version="1.0" encoding="UTF-8"?>
<!DOCTYPE svg PUBLIC "-//W3C//DTD SVG 1.1//EN" "http://www.w3.org/Graphics/SVG/1.1/DTD/svg11.dtd">
<!-- Creator: CorelDRAW X6 -->
<svg xmlns="http://www.w3.org/2000/svg" xml:space="preserve" width="8.4666mm" height="8.4666mm" version="1.1" style="shape-rendering:geometricPrecision; text-rendering:geometricPrecision; image-rendering:optimizeQuality; fill-rule:evenodd; clip-rule:evenodd"
viewBox="0 0 847 847"
 xmlns:xlink="http://www.w3.org/1999/xlink">
 <defs>
  <style type="text/css">
   <![CDATA[
    .fil0 {fill:#2B2A29}
   ]]>
  </style>
 </defs>
 <g id="Layer_x0020_1">
  <metadata id="CorelCorpID_0Corel-Layer"/>
  <g id="_729330416">
   <g>
    <g>
     <path class="fil0" d="M426 497c1,-4 1,-6 1,-16 1,-17 2,-40 2,-81 0,-38 0,-42 1,-42 1,0 1,1 1,3 0,8 3,15 5,17 3,2 14,2 16,1 3,-2 5,-7 6,-18 1,-13 0,-27 -3,-32 -1,-3 -4,-4 -11,-5 -5,0 -6,0 -7,2 -3,2 -4,5 -5,11l0 4 -2 0 -1 0 0 -9c-1,-13 -3,-34 -5,-47 0,-3 0,-9 0,-15 0,-5 -1,-10 -1,-11 0,-1 -2,-1 -3,0 0,1 -1,5 -1,11 0,5 0,11 0,13 -1,5 -3,18 -4,31 -1,12 -2,40 -2,66l0 7 -3 0c-3,0 -3,1 -4,3 -1,3 -1,3 -4,0 -2,-1 -3,-3 -8,-13 -8,-13 -9,-15 -14,-14 -5,0 -10,5 -13,12 -1,5 -2,12 -2,15 1,4 2,5 4,2 0,-1 1,-4 1,-6 2,-7 3,-9 5,-11 1,-2 3,-2 5,-2 4,-1 4,0 10,11 5,9 9,14 12,17 2,1 4,2 4,3 1,3 1,3 4,3l3 1 0 3c0,2 0,12 0,23 0,28 0,49 0,54 0,5 2,11 3,13 1,3 4,4 6,3 1,-1 3,-3 4,-7l0 0zm-6 -2c-1,0 -2,-1 -3,-5 0,-2 0,-39 0,-83l1 -81 1 -14c1,-8 2,-14 2,-14 1,0 1,6 2,13l1 13 0 62c0,68 -1,103 -1,106 -1,2 -2,3 -3,3l0 0zm27 -124c-6,0 -8,-1 -10,-3 -1,-3 -2,-8 -2,-16 1,-11 2,-17 5,-19 1,0 8,0 10,1 3,2 4,9 4,23 -1,5 -1,9 -3,11 -1,2 -1,3 -4,3z"/>
    </g>
    <polygon class="fil0" points="451,325 435,335 431,354 436,378 453,374 456,349 "/>
    <polygon class="fil0" points="426,320 421,294 417,322 414,391 426,393 "/>
    <polygon class="fil0" points="426,386 414,391 415,489 418,498 423,498 425,457 "/>
   </g>
   <g>
    <rect class="fil0" x="356" y="247" width="23.1651" height="217.036"/>
    <path class="fil0" d="M356 500c0,5 5,9 11,9l2 0c6,0 10,-4 10,-9l0 -29 -23 0 0 29z"/>
    <polygon class="fil0" points="365,226 371,226 368,220 "/>
    <polygon class="fil0" points="363,229 356,244 379,244 372,229 "/>
   </g>
  </g>
  <g id="_730324240">
   <rect class="fil0" x="183" y="414" width="401.641" height="23.3757"/>
   <g>
    <polygon class="fil0" points="714,582 516,423 845,284 676,443 "/>
    <g>
     <polygon class="fil0" points="473,360 469,360 469,471 473,471 "/>
     <polygon class="fil0" points="497,351 500,351 500,478 464,478 464,351 469,351 469,341 471,341 471,337 477,337 477,323 489,323 489,326 490,326 490,334 489,334 489,337 495,337 495,341 497,341 497,341 "/>
     <polygon class="fil0" points="464,481 500,481 500,489 464,489 "/>
    </g>
   </g>
  </g>
  <g id="_730323312">
   <path class="fil0" d="M214 411c-71,18 -71,21 -116,26 12,-13 -3,-30 -17,-21 -17,13 3,33 17,21 16,0 105,-18 116,-26l0 31 34 140 -161 -98 16 2 -80 -33 209 -171 -18 129z"/>
   <polygon class="fil0" points="107,418 105,424 94,449 211,443 214,411 "/>
   <path class="fil0" d="M282 376c-1,24 0,174 -12,173 -3,-1 -5,-5 -5,-10l-6 -162c-1,-12 4,-22 10,-22 7,-1 13,7 13,19 0,1 0,2 0,2zm-10 -96c-1,-3 -16,24 -14,49 1,17 7,24 14,21 9,-3 11,-19 8,-27 -8,-18 -10,-23 -8,-43z"/>
  </g>
 </g>
 <g id="Layer_x0020_1_0">
  <metadata id="CorelCorpID_1Corel-Layer"/>
  <g id="_810172560">
   <path class="fil0" d="M340 261c0,0 -12,-47 -17,-65l3 43c2,2 4,9 4,15 0,8 -3,14 -7,14 -4,0 -7,-6 -7,-14 0,-6 2,-13 5,-15l1 -43 -15 64 4 47 22 1 7 -47zm-11 252c2,-12 5,-192 5,-192l-24 -1c0,0 3,166 6,195 8,14 13,-2 13,-2z"/>
   <g>
   </g>
   <g>
   </g>
   <g>
   </g>
   <g>
   </g>
   <g>
   </g>
   <g>
   </g>
   <g>
   </g>
   <g>
   </g>
   <g>
   </g>
   <g>
   </g>
   <g>
   </g>
   <g>
   </g>
   <g>
   </g>
   <g>
   </g>
   <g>
   </g>
  </g>
 </g>
</svg>
