<?xml version="1.0" encoding="UTF-8"?>
<!DOCTYPE svg PUBLIC "-//W3C//DTD SVG 1.1//EN" "http://www.w3.org/Graphics/SVG/1.1/DTD/svg11.dtd">
<!-- Creator: CorelDRAW X6 -->
<svg xmlns="http://www.w3.org/2000/svg" xml:space="preserve" width="43.3492mm" height="43.3492mm" version="1.1" style="shape-rendering:geometricPrecision; text-rendering:geometricPrecision; image-rendering:optimizeQuality; fill-rule:evenodd; clip-rule:evenodd"
viewBox="0 0 4335 4335"
 xmlns:xlink="http://www.w3.org/1999/xlink">
 <defs>
  <style type="text/css">
   <![CDATA[
    .str0 {stroke:#FFCC01;stroke-width:75}
    .fil0 {fill:none}
   ]]>
  </style>
 </defs>
 <g id="Layer_x0020_1">
  <metadata id="CorelCorpID_0Corel-Layer"/>
  <path class="fil0 str0" d="M2217 163c-383,19 -809,60 -1094,252 -197,160 -179,433 -201,649 -15,3 -34,-11 -47,9 13,52 6,76 -12,112 -22,38 -10,19 -70,122 -22,48 -24,95 -28,141 -43,25 -76,15 -114,27 -28,28 -28,57 -35,85 -10,57 -28,114 -30,172 1,44 7,87 11,131 8,129 31,273 14,385 -28,26 -58,31 -92,49 -75,36 -122,85 -173,141 -45,68 -70,144 -59,217 9,68 19,135 41,200 115,199 346,486 396,506 30,-70 21,-167 70,-241 61,-70 127,-101 217,-144 125,-53 207,-111 309,-155 81,-42 144,-79 197,-114 173,-134 271,-277 417,-418 93,-101 207,-141 287,-145m-4 1851l7 -2m1326 -2779c-166,-35 -305,-53 -489,-72 -282,-28 -550,-35 -829,-39m-21 173c163,-1 332,15 503,25 193,9 366,26 548,59 126,31 311,34 352,70 25,53 -62,384 -123,536 -37,62 -67,175 -133,240 -68,18 -92,8 -141,-12 -226,-95 -398,-219 -575,-354 -51,-35 -97,-70 -151,-105 -45,-23 -82,-53 -136,-68 -29,-10 -54,-17 -84,-22m-48 683c61,1 103,14 154,41 135,78 255,194 389,305 83,64 148,109 241,162 76,48 161,77 254,115 95,34 148,50 215,88 55,28 94,59 129,97 53,86 67,161 83,236 8,76 13,147 -3,214 -25,124 -65,235 -121,341 -48,67 -95,121 -154,177 -64,59 -122,66 -177,83 -125,24 -245,37 -368,39 -110,4 -196,-26 -292,-54 -77,-22 -114,-70 -165,-112 -55,-40 -113,-54 -184,-67m-7 -3830c384,19 820,64 1105,255 197,161 179,434 201,650 16,3 34,-11 47,9 -13,52 -6,76 12,112 22,37 10,19 71,122 22,48 24,95 27,141 44,25 76,15 114,27 28,27 28,57 35,85 10,57 28,114 30,172 -1,44 -6,87 -11,131 -8,129 -31,273 -14,385 28,26 58,31 92,49 75,36 122,85 173,141 45,68 70,144 59,217 -8,68 -19,135 -41,200 -115,199 -346,486 -396,506 -29,-70 -21,-167 -70,-241 -61,-70 -127,-102 -216,-144 -126,-53 -208,-111 -310,-155 -81,-42 -144,-79 -196,-114 -173,-134 -272,-277 -418,-418 -93,-101 -210,-145 -290,-149m-1325 -933c166,-36 304,-54 489,-73 282,-28 567,-31 847,-35m-21 173c-163,-1 -309,12 -479,21 -193,9 -366,26 -549,59 -126,32 -311,34 -352,70 -25,53 62,384 123,536 38,62 68,175 133,240 68,18 93,8 142,-12 225,-95 397,-219 575,-353 50,-36 96,-70 151,-106 45,-22 81,-53 135,-68 29,-10 54,-19 84,-22l100 5m-51 682c-60,1 -104,10 -155,37 -135,78 -255,194 -388,306 -83,63 -149,108 -242,161 -75,48 -161,77 -254,115 -94,34 -148,50 -215,88 -55,28 -94,59 -129,97 -53,86 -66,161 -83,236 -7,76 -13,147 4,214 24,124 64,235 121,341 47,67 94,121 153,177 65,59 122,67 177,83 126,24 246,37 368,39 110,4 196,-25 292,-54 78,-22 115,-70 166,-112 54,-40 108,-49 179,-61m-672 -442c-33,-28 -85,-75 -140,-89 -73,-8 -138,13 -210,44 -71,46 -120,104 -133,204 -3,85 31,149 74,219 74,72 149,100 248,135 111,32 185,20 278,0 79,-22 152,-44 216,-99 41,-39 57,-48 47,-122 -21,-50 -18,-154 -76,-210 -22,-19 -86,18 -145,10 -60,-13 -98,-34 -159,-92zm1394 -2107c161,12 328,1 483,35 38,33 22,80 20,121 -11,144 -62,303 -85,354 -26,43 -49,65 -90,81 -139,-28 -245,-120 -365,-194 -123,-78 -220,-136 -346,-201 -82,-43 -170,-77 -199,-131 -22,-28 -11,-52 -2,-78 59,-46 121,-23 186,-20l398 33zm-38 2111c32,-28 85,-76 140,-89 72,-8 137,13 210,44 70,46 119,104 133,204 2,84 -32,149 -75,219 -74,72 -148,100 -248,135 -110,31 -184,20 -278,0 -78,-22 -152,-44 -216,-99 -41,-39 -57,-49 -47,-122 21,-51 19,-154 77,-210 21,-19 86,18 145,10 60,-13 98,-34 159,-92zm-1395 -2115c-161,12 -328,1 -483,35 -37,33 -21,80 -20,121 12,144 62,303 85,354 26,44 49,65 90,81 139,-28 246,-120 366,-194 122,-78 219,-136 346,-200 81,-44 170,-78 199,-132 21,-27 10,-52 2,-78 -60,-46 -122,-23 -187,-20l-398 33z"/>
 </g>
</svg>
