<svg xmlns="http://www.w3.org/2000/svg" xmlns:xlink="http://www.w3.org/1999/xlink" version="1.1" id="Capa_1" x="0px" y="0px" width="462.792px" height="462.792px" viewBox="0 0 462.792 462.792" xml:space="preserve" class="style0"><style>.style0{enable-background:	new 0 0 462.792 462.792; fill:#FFCC01;}</style><g><g><path d="M112.893 259.1c28.362 4.6 51.7 6.9 69.3 6.907c0.004 0 0 0 0 0c21.373 0 29.601-3.364 32.737-6.187 c0.886-0.795 1.477-1.865 1.679-3.038l9.962-57.646c0.21-1.22-0.014-2.476-0.631-3.549c-1.264-2.193-4.223-7.329-34.466-12.53 c-18.021-3.099-40.844-5.383-64.265-6.431c-2.101-0.087-4.042 1.052-4.978 2.923c-6.441 12.87-16.791 39.698-13.757 74.8 C108.667 256.7 110.5 258.7 112.9 259.1z"/><path d="M448.068 271.461c5.13-20.027 46.247-191.09-36.521-222.229c-32.525-11.736-69.728-17.687-110.57-17.687 c-76.192 0-152.922 20.852-203.873 38.345C41.98 88.8 4.2 108.1 3.8 108.245c-2.518 1.288-4.012 3.966-3.788 6.8 c0.224 2.8 2.1 5.2 4.8 6.104l99.698 32.464c0.603 0.2 1.2 0.3 1.9 0.3 c77.142 3.4 132.4 13.6 144.2 26.672c2.132 2.4 3.1 4.9 3 7.597l-0.059 0.465l-14.412 83.4 c-0.027 0.166-0.052 0.334-0.067 0.5c-0.107 1.086-0.679 3.258-3.293 5.603c-4.915 4.407-17.377 9.663-48.85 9.7 c-24.93 0-58.25-3.344-99.035-9.938c-3.078-0.495-6.118 1.103-7.448 3.925L48.552 349.3c-0.508 1.075-0.732 2.263-0.653 3.4 c0.287 4.3 6 40.6 9.9 50.083c0.567 1.4 1.5 2.5 2.8 3.258l39.337 24.125c1.114 0.7 2.4 1 3.7 1 c0.794 0 1.592-0.135 2.358-0.408l343.757-123.035c3.312-1.186 5.229-4.644 4.48-8.08L448.068 271.461z"/></g></g><g></g><g></g><g></g><g></g><g></g><g></g><g></g><g></g><g></g><g></g><g></g><g></g><g></g><g></g><g></g></svg>