<?xml version="1.0" encoding="UTF-8"?>
<!DOCTYPE svg PUBLIC "-//W3C//DTD SVG 1.1//EN" "http://www.w3.org/Graphics/SVG/1.1/DTD/svg11.dtd">
<!-- Creator: CorelDRAW X6 -->
<svg xmlns="http://www.w3.org/2000/svg" xml:space="preserve" width="86.6986mm" height="43.3492mm" version="1.1" style="shape-rendering:geometricPrecision; text-rendering:geometricPrecision; image-rendering:optimizeQuality; fill-rule:evenodd; clip-rule:evenodd"
viewBox="0 0 8670 4335"
 xmlns:xlink="http://www.w3.org/1999/xlink">
 <defs>
  <style type="text/css">
   <![CDATA[
    .str0 {stroke:#FFCC01;stroke-width:75}
    .fil0 {fill:none}
   ]]>
  </style>
 </defs>
 <g id="Layer_x0020_1">
  <metadata id="CorelCorpID_0Corel-Layer"/>
  <path class="fil0 str0" d="M2205 453c-512,-66 -1497,-243 -1525,-197 110,205 386,339 562,528 -138,97 -338,116 -480,208 -142,248 -217,471 -268,723 14,58 74,51 162,50 41,-7 373,-527 591,-667 99,-28 186,-29 285,-7 111,72 193,130 327,163 267,102 469,232 741,280 33,53 -102,126 -92,200 96,134 363,229 372,320 -62,27 -108,10 -178,-10 -144,-71 -288,-99 -453,-132 -133,-47 -242,-73 -378,-84 -202,-12 -288,0 -421,17 -210,44 -363,157 -514,275 -153,166 -263,301 -339,541 -65,228 -42,358 -32,461 22,286 143,431 276,608 140,139 263,246 455,327 145,64 264,61 424,69 356,12 490,-100 710,-235 190,-117 336,-464 390,-453 76,32 112,112 172,140 885,9 2544,89 2655,25 52,-31 119,-478 195,-560 33,5 36,226 84,342 53,161 138,265 226,376 165,209 438,317 644,357 259,52 360,3 533,-34 217,-58 295,-139 437,-249 152,-120 210,-261 284,-415 82,-221 100,-440 45,-664 -28,-135 -89,-238 -159,-358 -98,-128 -164,-196 -288,-320 -124,-102 -234,-163 -375,-225 -69,-27 -136,-19 -179,-26 -9,-67 -17,-135 -25,-202m-4806 673c-96,-86 -214,-119 -362,-157 -213,-43 -380,15 -517,55 -279,90 -379,247 -455,364 -152,240 -126,373 -123,516 18,220 83,343 186,483 101,137 327,275 446,301 300,84 375,48 421,48 118,-22 309,-80 372,-154 121,-86 252,-244 290,-382m4553 -1204c152,28 250,43 409,142 145,99 225,186 293,316 62,150 118,284 99,439 -2,151 -52,274 -119,406 -75,122 -141,194 -282,298 -164,64 -229,134 -535,110 -124,-11 -237,-20 -420,-136 -105,-61 -185,-132 -286,-307 -65,-108 -81,-268 -88,-426m924 -1384c156,-69 299,-144 472,-165 -6,-278 -309,-526 -447,-705 -89,-96 -155,-193 -267,-291 -240,-9 -510,-166 -762,-272 -43,13 36,346 -7,377 -151,-1 -300,-56 -453,-2 -144,170 -346,176 -554,239 -144,49 -359,452 -561,454 -167,30 -325,39 -500,14 -188,-25 -212,-116 -318,-174 -297,-28 -572,-27 -893,-84 -129,-14 -224,-56 -332,-103 -49,-32 -112,-279 -195,-418 -9,-15 -24,-32 -39,-41 -6,-2 -9,-1 -13,-2"/>
 </g>
</svg>
