<svg xmlns="http://www.w3.org/2000/svg" xmlns:xlink="http://www.w3.org/1999/xlink" version="1.1" id="Capa_1" x="0px" y="0px" width="358.945px" height="358.945px" viewBox="0 0 358.945 358.945" xml:space="preserve" class="style0"><style>.style0{enable-background:	new 0 0 358.945 358.945; fill:#FFCC01;}</style><g><g><g><path d="M307.633 172.984c-6.389 0-12.61 1.174-18.524 3.479l-2.822-4.597l33.765-4.5c0.456-0.063 11.241-1.459 12.688-9.508 c2.558-14.259-27.574-37.293-92.126-70.442c-5.915-2.747-10.227-4.086-13.181-4.086c-3.524 0-4.857 1.892-5.338 3 c-2.606 6 9.1 21.8 20.6 35.245c-12.677-6.737-33.339-15.783-52.885-15.783c-9.833 0-18.417 2.306-25.517 6.9 c-5.626 3.591-12.784 13.06-21.344 28.138c-0.375-0.597-0.987-1.015-1.684-1.132l-50.752-8.983l-7.071-21.227 c-0.282-0.864-1.009-1.486-1.907-1.672c-0.973-0.184-24.085-4.666-44.883-4.666c-22.902 0-35.218 5.338-36.62 15.9 c-3.278 24.8 99.9 57.6 121.8 64.294c-5.134 11.463-9.206 21.227-11.334 26.469c-6.395-21.432-26.667-36.74-49.146-36.74 c-28.286 0-51.314 23.031-51.314 51.332c0 28.3 23 51.3 51.3 51.299c22.638 0 42.763-15.084 49.164-36.756h121.27 c0.823 0 1.615-0.414 2.078-1.099l37.308-54.812l1.999 3.255c-10.778 9.733-16.939 23.574-16.939 38.1 c0 28.3 23 51.3 51.3 51.299s51.312-23.005 51.312-51.299C358.945 196 335.9 173 307.6 172.984z M292.639 132.17c0.985-1.36 2.9-2.054 5.717-2.054c1.934 0 4.3 0.3 6.9 0.981c20.903 15.2 23.1 22.7 22.5 25.9 c-0.78 4.398-8.305 5.419-8.395 5.425l-16.213 2.165C297.557 155.7 288.5 138.1 292.6 132.17z M93.274 219 c-0.459 0.589-1.198 0.942-1.96 0.942H54.924v13.859h34.735c0.834 0 1.6 0.4 2.1 1.135c0.469 0.7 0.6 1.6 0.2 2.4 c-5.233 12.244-17.219 20.158-30.522 20.158c-18.306 0-33.194-14.892-33.194-33.176c0-18.32 14.889-33.201 33.194-33.201 c15.574 0 28.9 10.6 32.3 25.797C93.938 217.7 93.8 218.4 93.3 219.038z M307.633 257.5 c-18.297 0-33.183-14.892-33.183-33.182c0-8.972 3.531-17.391 9.968-23.695c0.559-0.553 1.321-0.841 2.108-0.703 c0.708 0.1 1.4 0.5 1.8 1.172l14.352 23.322l7.302-4.491l-14.346-23.323c-0.384-0.637-0.48-1.435-0.228-2.161 c0.258-0.721 0.834-1.285 1.555-1.525c3.482-1.189 7.08-1.802 10.688-1.802c18.291 0 33.2 14.9 33.2 33.2 C340.81 242.6 325.9 257.5 307.6 257.492z"/></g></g></g><g></g><g></g><g></g><g></g><g></g><g></g><g></g><g></g><g></g><g></g><g></g><g></g><g></g><g></g><g></g></svg>