<svg xmlns="http://www.w3.org/2000/svg" xmlns:xlink="http://www.w3.org/1999/xlink" version="1.1" id="Capa_1" x="0px" y="0px" width="106.059px" height="106.059px" viewBox="0 0 106.059 106.059" xml:space="preserve" class="style0"><style>.style0{enable-background:	new 0 0 106.059 106.059;fill:#ffcc01;}</style><g><path d="M90.546 15.518C69.858-5.172 36.199-5.172 15.5 15.513C-5.173 36.198-5.171 69.9 15.5 90.5 c20.682 20.7 54.3 20.7 75.027-0.004C111.23 69.9 111.2 36.2 90.5 15.518z M84.757 84.8 c-17.494 17.494-45.96 17.496-63.455 0.002c-17.498-17.497-17.496-45.966 0-63.46C38.796 3.8 67.3 3.8 84.8 21.3 C102.253 38.8 102.3 67.3 84.8 84.758z M33.24 38.671c0-3.424 2.777-6.201 6.201-6.201c3.423 0 6.2 2.8 6.2 6.2 c0 3.426-2.777 6.202-6.2 6.202C36.017 44.9 33.2 42.1 33.2 38.671z M61.357 38.671c0-3.424 2.779-6.201 6.203-6.201 c3.423 0 6.2 2.8 6.2 6.201c0 3.426-2.776 6.202-6.2 6.202S61.357 42.1 61.4 38.671z M76.017 64.1 c-3.843 8.887-12.843 14.629-22.927 14.629c-10.301 0-19.354-5.771-23.064-14.703c-0.636-1.529 0.089-3.285 1.62-3.921 c0.376-0.155 0.766-0.229 1.15-0.229c1.176 0 2.3 0.7 2.8 1.85c2.777 6.7 9.7 11 17.5 11 c7.69 0 14.528-4.321 17.42-11.011c0.658-1.521 2.424-2.222 3.944-1.563S76.675 62.5 76 64.068z"/></g><g></g><g></g><g></g><g></g><g></g><g></g><g></g><g></g><g></g><g></g><g></g><g></g><g></g><g></g><g></g></svg>